<?xml version="1.0" encoding="UTF-8"?>
<svg id="Layer_1" data-name="Layer 1" xmlns="http://www.w3.org/2000/svg" viewBox="0 0 490.75 138.9">
  <defs>
    <style>
      .cls-1 {
        fill: #e41e26;
      }

      .cls-2 {
        fill: #231f20;
      }
    </style>
  </defs>
  <path class="cls-1" d="M120.58,.21l-14.88,43.71s-.14,2.58-3.89,1.95c-3.74-.64-5.69-.36-6.02,3.77-.34,4.12-.51,9.66-6.15,11.74,0,0-.54,4.16-1.09,9.48-.54,5.32-7.52,10.24-10.15,12.35-.91,.72-1.64,1.86-2.1,3.14-1.6,4.36,1.52,9.34,6.17,9.56,3.84,.18,6.72-3.18,10.79-7.91,5.82-6.75,7.35-6.15,8.68-5.12,1.18,.91,.09,5.4-5.05,16.05-5.14,10.66-26.95,15.6-33.94-2.29-6.99-17.89,9.81-23.11,14.54-24.78,4.72-1.67,5.22-11.34,5.22-11.34-4.96-3.39-3.77-8.8-3.09-12.89,.68-4.08-1.14-4.83-4.92-5.12-3.79-.3-3.3-2.84-3.3-2.84L69.7,.21H21.98L0,138.8H37.42l11.88-74.84h1.39l9.11,74.84h28.71L120.58,63.96h1.39l-11.88,74.84h37.42L169.49,.21h-48.91Z"/>
  <g>
    <path class="cls-2" d="M198.21,101.89l-.46-14.23h-17.86l-6.04,14.23h-10.97l29.2-65.84h13.67l3.25,65.84h-10.79Zm-1.21-55.52h-.37l-13.76,33.02h14.97l-.84-33.02Z"/>
    <path class="cls-2" d="M264.61,61.34c0,5.21-.62,10.25-1.86,15.11-1.24,4.87-3.16,9.19-5.77,12.97-2.6,3.78-5.91,6.8-9.9,9.07-4,2.26-8.73,3.39-14.18,3.39h-16.65l11.44-65.84h15.9c3.72,0,6.91,.62,9.58,1.86,2.67,1.24,4.84,2.98,6.51,5.21,1.67,2.23,2.91,4.9,3.72,8,.8,3.1,1.21,6.51,1.21,10.23Zm-10.79,.84c0-5.15-.95-9.25-2.84-12.32-1.89-3.07-4.79-4.6-8.7-4.6h-5.67l-8.09,47.43h5.77c2.98,0,5.67-.85,8.09-2.56,2.42-1.7,4.48-3.97,6.19-6.79,1.7-2.82,3.01-6.08,3.91-9.76,.9-3.69,1.35-7.49,1.35-11.39Z"/>
    <path class="cls-2" d="M283.96,80.87h-15.72l1.3-8.18h15.9l-1.49,8.18Z"/>
    <path class="cls-2" d="M323.76,45.07h-12.28l-9.86,56.82h-10.6l9.95-56.82h-12.37l1.58-9.02h35.15l-1.58,9.02Z"/>
    <path class="cls-2" d="M358.73,45.34h-18.23l-3.25,18.13h17.39l-1.49,8.83h-17.3l-3.53,20.09h19.9l-1.58,9.49h-30.13l11.44-65.84h28.46l-1.67,9.3Z"/>
    <path class="cls-2" d="M401.41,49.72c-1.05-1.61-2.29-2.88-3.72-3.81-1.43-.93-3.22-1.39-5.39-1.39-2.92,0-5.52,1.05-7.81,3.16-2.29,2.11-4.25,4.79-5.86,8.04-1.61,3.25-2.85,6.82-3.72,10.7-.87,3.88-1.3,7.58-1.3,11.11,0,4.71,.85,8.54,2.56,11.49,1.7,2.95,4.39,4.42,8.04,4.42,2.42,0,4.5-.6,6.23-1.81,1.74-1.21,3.16-2.43,4.28-3.67l5.11,7.35c-2.17,2.48-4.67,4.46-7.49,5.95-2.82,1.49-6.18,2.23-10.09,2.23-3.16,0-5.97-.62-8.42-1.86-2.45-1.24-4.51-2.96-6.18-5.16-1.67-2.2-2.95-4.82-3.81-7.86-.87-3.04-1.3-6.38-1.3-10.04,0-5.52,.74-10.91,2.23-16.18,1.49-5.27,3.58-9.98,6.28-14.14,2.7-4.15,5.94-7.49,9.72-10,3.78-2.51,7.94-3.77,12.46-3.77,3.78,0,6.97,.68,9.58,2.05,2.6,1.36,4.65,3.25,6.14,5.67l-7.53,7.53Z"/>
    <path class="cls-2" d="M447.63,101.89h-10.6l5.21-29.39h-20.46l-5.02,29.39h-10.6l11.44-65.84h10.6l-4.84,26.97h20.37l4.65-26.97h10.69l-11.44,65.84Z"/>
  </g>
  <polygon class="cls-1" points="490.75 0 468.41 138.86 156.55 138.9 158.38 129.91 460.54 129.87 461.34 124.75 159.2 124.74 159.9 120.25 462.05 120.25 477.92 19.03 175.86 19.02 176.56 14.53 478.62 14.53 479.48 9.05 177.42 9.11 178.85 .04 490.75 0"/>
</svg>